<?xml version="1.0" encoding="UTF-8"?>
<svg id="Layer_1" xmlns="http://www.w3.org/2000/svg" version="1.1" viewBox="0 0 50 50">
  <!-- Generator: Adobe Illustrator 29.3.1, SVG Export Plug-In . SVG Version: 2.1.0 Build 151)  -->
  <path d="M12.15,43.18c-3.71,0-6.34-1.19-7.89-3.58s-2.32-5.53-2.32-9.44,1-7.17,2.99-10.12,4.33-5.52,7.01-7.71c2.68-2.19,5.01-4.03,7.01-5.51l3.64,4.16c-3.01,2.38-5.58,4.81-7.72,7.27-2.13,2.46-3.53,5.03-4.19,7.68,2.15,1.49,3.89,2.7,5.22,3.64,1.33.94,2.3,1.9,2.9,2.87.6.98.91,2.31.91,3.99,0,.9-.3,1.88-.91,2.93-.61,1.06-1.48,1.96-2.61,2.7-1.14.74-2.48,1.11-4.05,1.11ZM37.61,43.18c-3.76,0-6.4-1.19-7.95-3.58-1.54-2.38-2.32-5.53-2.32-9.44s1.01-7.18,3.02-10.15c2.01-2.97,4.36-5.55,7.04-7.74s5.04-4.01,7.07-5.45l3.58,4.16c-2.97,2.38-5.54,4.81-7.72,7.27s-3.59,5.03-4.25,7.68c2.19,1.49,3.94,2.69,5.25,3.61,1.31.92,2.27,1.88,2.87,2.87.6,1,.91,2.34.91,4.02,0,.9-.3,1.88-.88,2.93-.59,1.06-1.44,1.96-2.55,2.7s-2.47,1.11-4.08,1.11Z"/>
</svg>